<svg xmlns="http://www.w3.org/2000/svg" width="164" height="33" viewBox="0 0 164 33" fill="none"><g clip-path="url(#clip0_65_133)"><path d="M0.694169 15.6772V18.5954C0.694169 18.8748 0.851922 19.1542 1.10433 19.3094L2.2086 19.9613C2.2717 19.6509 2.42945 19.3715 2.65031 19.1231L4.00698 17.602L0.694169 15.6772ZM46.3794 17.602L47.7677 19.1231C47.9885 19.3715 48.1463 19.6509 48.2094 19.9613L49.3452 19.3094C49.6292 19.1542 49.7554 18.8748 49.7554 18.5954V15.6772L46.3794 17.602ZM1.10433 14.9943L3.62838 16.4223L24.0416 28.0949C24.7673 28.5295 25.6822 28.5295 26.4395 28.0949L46.8527 16.4223L49.3767 14.9943C49.6607 14.839 49.7869 14.5596 49.7869 14.2802C49.7869 14.0008 49.6607 13.7214 49.3767 13.5662L49.2505 13.5041L44.865 10.9895L46.0639 10.1203C46.127 10.0582 46.1901 10.0893 46.2217 10.1203C46.2532 10.1203 46.3163 10.1824 46.2848 10.2445L46.2532 11.6104C46.2532 11.7657 46.3794 11.9209 46.5687 11.9209C46.7265 11.9209 46.8843 11.7967 46.8843 11.6104L46.9158 10.2445C46.9158 9.96509 46.758 9.68569 46.5056 9.56151C46.2532 9.43734 45.9377 9.46838 45.7169 9.6236L44.3602 10.617C44.3287 10.617 44.3287 10.6481 44.3287 10.6791L41.8993 9.28212L43.1297 8.38183C43.1928 8.31975 43.2559 8.35079 43.2875 8.38183C43.319 8.38183 43.3821 8.44392 43.3506 8.50601L43.319 9.87196C43.319 10.0272 43.4452 10.1824 43.6345 10.1824C43.7923 10.1824 43.95 10.0582 43.95 9.87196L43.9816 8.50601C43.9816 8.22661 43.8238 7.94722 43.5714 7.82304C43.319 7.69886 43.0035 7.72991 42.7827 7.88513L41.426 8.87854C41.3944 8.90959 41.3944 8.90958 41.3629 8.94063L38.9335 7.54364L40.1955 6.64336C40.2586 6.58127 40.3217 6.61231 40.3533 6.64336C40.3848 6.64336 40.4479 6.70545 40.4164 6.76753L40.3848 8.13348C40.3848 8.2887 40.511 8.44392 40.7003 8.44392C40.8581 8.44392 41.0158 8.31975 41.0158 8.13348L41.0474 6.76753C41.0474 6.48814 40.8896 6.20874 40.6372 6.08456C40.3848 5.96039 40.0693 5.99143 39.8485 6.14665L38.4918 7.14007C38.4602 7.17111 38.4287 7.20215 38.4287 7.2332L35.9677 5.80516L37.2298 4.87384C37.2929 4.81175 37.356 4.84279 37.3875 4.87384C37.4191 4.87384 37.4822 4.93593 37.4506 4.99801L37.4191 6.36396C37.4191 6.51918 37.5453 6.6744 37.7346 6.6744C37.8923 6.6744 38.0501 6.55023 38.0501 6.36396L38.0816 4.99801C38.0816 4.71862 37.9239 4.43922 37.6715 4.31504C37.4191 4.19087 37.1036 4.22191 36.8827 4.37713L35.526 5.37055C35.4945 5.40159 35.4629 5.43263 35.4314 5.46368L32.9704 4.03564L34.264 3.10432C34.3271 3.04223 34.3902 3.07327 34.4218 3.10432C34.4533 3.10432 34.5164 3.16641 34.4849 3.2285L34.4533 4.59444C34.4533 4.74966 34.5795 4.90488 34.7688 4.90488C34.9266 4.90488 35.0843 4.78071 35.0843 4.59444L35.1159 3.2285C35.1159 2.9491 34.9581 2.6697 34.7057 2.54552C34.4533 2.42135 34.1378 2.45239 33.917 2.60761L32.5603 3.60103C32.5287 3.63207 32.4972 3.66311 32.4656 3.7252L30.0047 2.29717L31.2983 1.3348C31.3614 1.27271 31.4245 1.30375 31.456 1.3348C31.4876 1.3348 31.5507 1.39689 31.5191 1.45898L31.4876 2.82492C31.4876 2.98014 31.6138 3.13536 31.8031 3.13536C31.9608 3.13536 32.1186 3.01119 32.1186 2.82492L32.1501 1.45898C32.1501 1.17958 31.9924 0.900179 31.74 0.776002C31.4876 0.651826 31.1721 0.68287 30.9512 0.838091L29.5945 1.83151C29.5314 1.86255 29.4999 1.92464 29.4999 1.98673L26.4079 0.310339C25.6507 -0.12428 24.7357 -0.12428 24.0101 0.310339L21.139 1.98673C21.1074 1.92464 21.0759 1.89359 21.0443 1.83151L19.6876 0.838091C19.4668 0.68287 19.1513 0.651826 18.8989 0.776002C18.6149 0.931223 18.4572 1.17958 18.4572 1.45898L18.4887 2.82492C18.4887 2.98014 18.6149 3.13536 18.8042 3.13536C18.962 3.13536 19.1197 2.98014 19.1197 2.82492L19.0882 1.45898C19.0882 1.36584 19.1513 1.3348 19.1513 1.3348C19.1828 1.3348 19.2459 1.30375 19.309 1.3348L20.6026 2.29717L18.1417 3.7252C18.1101 3.69416 18.0786 3.63207 18.047 3.60103L16.6903 2.60761C16.4695 2.45239 16.154 2.42135 15.9016 2.54552C15.6492 2.6697 15.4914 2.9491 15.4914 3.2285L15.523 4.59444C15.523 4.74966 15.6492 4.90488 15.8385 4.90488C15.9962 4.90488 16.154 4.74966 16.154 4.59444L16.0909 3.19745C16.0909 3.10432 16.154 3.07327 16.154 3.07327C16.1855 3.07327 16.2486 3.04223 16.3117 3.07327L17.6053 4.0046L15.1443 5.43263C15.1128 5.40159 15.0812 5.37055 15.0497 5.3395L13.693 4.34609C13.4722 4.19087 13.1567 4.15982 12.9043 4.284C12.6518 4.40818 12.4941 4.68757 12.4941 4.96697L12.5256 6.33292C12.5256 6.48814 12.6518 6.64336 12.8412 6.64336C12.9989 6.64336 13.1567 6.48814 13.1567 6.33292L13.1251 4.96697C13.1251 4.87384 13.1882 4.84279 13.1882 4.84279C13.2198 4.84279 13.2829 4.81175 13.346 4.84279L14.608 5.77412L12.147 7.20215C12.1155 7.17111 12.1155 7.14007 12.0839 7.10902L10.7273 6.08456C10.5064 5.92934 10.1909 5.8983 9.9385 6.02247C9.68609 6.14665 9.52834 6.42605 9.52834 6.70545L9.55989 8.07139C9.55989 8.22661 9.68609 8.38183 9.87539 8.38183C10.0331 8.38183 10.1909 8.22661 10.1909 8.07139L10.1593 6.70545C10.1593 6.61231 10.2225 6.58127 10.2225 6.58127C10.254 6.58127 10.3171 6.55023 10.3802 6.58127L11.6422 7.48155L9.14973 8.90959C9.11818 8.87854 9.11818 8.8475 9.08663 8.8475L7.72995 7.85408C7.5091 7.69886 7.19359 7.66782 6.94119 7.79199C6.68878 7.91617 6.53103 8.19557 6.53103 8.47497L6.56258 9.84091C6.56258 9.99613 6.68878 10.1514 6.87809 10.1514C7.03584 10.1514 7.19359 9.99613 7.19359 9.84091L7.16204 8.47497C7.16204 8.38183 7.22514 8.35079 7.22514 8.35079C7.25669 8.35079 7.3198 8.31975 7.3829 8.35079L8.61337 9.25107L6.18397 10.6481C6.18397 10.617 6.15242 10.617 6.15242 10.586L4.79575 9.59256C4.57489 9.43734 4.25939 9.40629 4.00698 9.53047C3.75458 9.65465 3.59682 9.93404 3.59682 10.2134L3.62838 11.5794C3.62838 11.7346 3.75458 11.8898 3.94388 11.8898C4.10163 11.8898 4.25939 11.7346 4.25939 11.5794L4.22784 10.2134C4.22784 10.1203 4.29094 10.0893 4.29094 10.0893C4.32249 10.0893 4.38559 10.0582 4.44869 10.0893L5.64761 10.9585L1.23053 13.4731L1.10433 13.5352C0.820371 13.6904 0.694169 13.9698 0.694169 14.2492C0.694169 14.5596 0.820371 14.839 1.10433 14.9943ZM9.05508 25.4872L9.02353 23.8419L9.84384 24.3075L10.3487 24.618C10.4433 24.3075 10.5695 24.0592 10.7904 23.8108L12.1786 22.2586L11.4214 21.824L10.6957 21.4204L10.1593 21.11L8.64492 22.7864C8.45562 22.9726 8.36096 23.221 8.36096 23.5004C8.36096 23.5314 8.36096 23.5625 8.36096 23.5935L8.42407 25.5182C8.42407 25.6424 8.36097 25.7355 8.26631 25.7976L5.52141 27.7534C5.39521 27.8466 5.36366 28.0328 5.45831 28.188C5.52141 28.2812 5.61606 28.3122 5.71071 28.3122C5.77382 28.3122 5.83692 28.2812 5.90002 28.2501L8.64492 26.2943C8.92888 26.1081 9.08663 25.8287 9.05508 25.4872ZM6.34173 23.935L6.31018 22.2896L7.13049 22.7553L7.6353 23.0347C7.72995 22.7243 7.85616 22.4449 8.07701 22.2276L9.46524 20.6753L8.70802 20.2407L8.01391 19.8682L7.47755 19.5578L5.99467 21.2341C5.80537 21.4204 5.71071 21.6998 5.71071 21.9482C5.71071 21.9792 5.71071 22.0102 5.71071 22.0413L5.77382 23.966C5.77382 24.0902 5.71071 24.1833 5.61606 24.2454L2.83961 26.1702C2.71341 26.2633 2.68186 26.4496 2.77651 26.6048C2.83961 26.6979 2.93426 26.729 3.02891 26.729C3.09201 26.729 3.15512 26.6979 3.21822 26.6669L5.96312 24.7111C6.21552 24.5559 6.37328 24.2454 6.34173 23.935ZM3.62838 22.3828L3.59682 20.7685L4.41714 21.2341L4.92195 21.5135C4.98505 21.2031 5.1428 20.9237 5.36366 20.6753L6.75188 19.1542L5.99467 18.7196L5.30056 18.316L4.7642 18.0055L3.28132 19.6509C3.09201 19.8682 2.99736 20.1165 2.99736 20.3959C2.99736 20.427 2.99736 20.427 2.99736 20.458L3.06046 22.3828C3.06046 22.507 2.99736 22.6001 2.90271 22.6622L0.157809 24.618C0.0316064 24.7111 5.58048e-05 24.8974 0.0947076 25.0526C0.157809 25.1457 0.252461 25.1768 0.347112 25.1768C0.410214 25.1768 0.473315 25.1457 0.536416 25.1147L3.28132 23.1589C3.50217 22.9726 3.65993 22.6932 3.62838 22.3828ZM44.8335 24.2454C44.7388 24.1833 44.6757 24.0592 44.6757 23.966L44.7388 22.0413C44.7388 22.0102 44.7388 21.9792 44.7388 21.9482C44.7388 21.6688 44.6126 21.4204 44.4549 21.2341L42.972 19.5888L42.4356 19.8992L41.7099 20.3028L40.9527 20.7374L42.341 22.2896C42.5618 22.507 42.7196 22.8174 42.7827 23.0968L43.2875 22.8174L44.1078 22.3517L44.0762 23.966C44.0762 24.2765 44.234 24.5869 44.4864 24.7732L47.2313 26.729C47.2944 26.76 47.3575 26.7911 47.4206 26.7911C47.5153 26.7911 47.6099 26.76 47.673 26.6669C47.7677 26.5427 47.7361 26.3564 47.6099 26.2323L44.8335 24.2454ZM50.2917 24.618L47.5468 22.6622C47.4522 22.6001 47.3891 22.4759 47.3891 22.3828L47.4522 20.458C47.4522 20.427 47.4522 20.427 47.4522 20.3959C47.4522 20.1165 47.326 19.8682 47.1682 19.6509L45.6853 18.0055L45.149 18.316L44.4233 18.7196L43.6661 19.1542L45.0543 20.6753C45.2752 20.9237 45.4329 21.2031 45.496 21.5135L46.0008 21.2341L46.8211 20.7685L46.7896 22.3828C46.7896 22.6932 46.9158 23.0037 47.1998 23.1899L49.9447 25.1457C50.0078 25.1768 50.0709 25.2078 50.134 25.2078C50.2286 25.2078 50.3233 25.1768 50.3864 25.0836C50.4495 24.8974 50.4179 24.7111 50.2917 24.618ZM14.4818 28.6227L14.4502 26.9463L15.2705 27.4119L15.8069 27.7224C15.9016 27.443 16.0278 27.1636 16.2486 26.9463L17.6684 25.363L16.9112 24.9284L16.1855 24.5248L15.6492 24.2144L14.1347 25.8908C13.977 26.077 13.8508 26.3254 13.8508 26.5737C13.8508 26.6048 13.8508 26.6669 13.8508 26.6979L13.9139 28.6227C13.9139 28.7468 13.8508 28.84 13.7561 28.9021L11.0112 30.8578C10.885 30.951 10.8535 31.1372 10.9481 31.2925C11.0112 31.3856 11.1059 31.4166 11.2005 31.4166C11.2636 31.4166 11.3267 31.3856 11.3898 31.3546L14.1347 29.3988C14.3556 29.2435 14.5133 28.9331 14.4818 28.6227ZM11.7684 27.0704L11.7369 25.3941L12.5572 25.8597L13.0936 26.1702C13.1882 25.8908 13.3144 25.6114 13.5353 25.3941L14.955 23.8419L14.1978 23.4072L13.4722 23.0037L12.9358 22.6932L11.4214 24.3696C11.2321 24.5559 11.1374 24.8042 11.1374 25.0526C11.1374 25.0836 11.1374 25.1147 11.1374 25.1768L11.2005 27.1015C11.2005 27.2257 11.1374 27.3188 11.0428 27.3809L8.29786 29.3367C8.17166 29.4298 8.14011 29.6161 8.23476 29.7713C8.29786 29.8644 8.39252 29.8955 8.48717 29.8955C8.55027 29.8955 8.61337 29.8644 8.67647 29.8334L11.4214 27.8776C11.6422 27.6913 11.8 27.3809 11.7684 27.0704ZM39.4068 27.3809C39.3121 27.3188 39.249 27.1946 39.249 27.1015L39.3121 25.1768C39.3121 25.1457 39.3121 25.1147 39.3121 25.0526C39.2806 24.8042 39.1859 24.5559 39.0281 24.3696L37.5137 22.6932L36.9774 23.0037L36.2517 23.4072L35.4945 23.8419L36.9143 25.3941C37.1351 25.6114 37.2613 25.8908 37.356 26.1702L37.8923 25.8597L38.7126 25.3941L38.6811 27.0394C38.6811 27.3498 38.8073 27.6603 39.0913 27.8466L41.8362 29.8023C41.8993 29.8334 41.9624 29.8644 42.0255 29.8644C42.1201 29.8644 42.2148 29.8334 42.2779 29.7403C42.3725 29.6161 42.341 29.4298 42.2148 29.3056L39.4068 27.3809ZM36.6934 28.9331C36.5988 28.871 36.5357 28.7468 36.5357 28.6537L36.5988 26.729C36.5988 26.6979 36.5988 26.6358 36.5988 26.6048C36.5672 26.3564 36.4725 26.1081 36.3148 25.9218L34.8004 24.2454L34.264 24.5559L33.5383 24.9594L32.7811 25.3941L34.2009 26.9463C34.3902 27.1636 34.548 27.443 34.6426 27.7224L35.179 27.4119L35.9993 26.9463L35.9677 28.6227C35.9677 28.9331 36.0939 29.2435 36.3779 29.4298L39.1228 31.3856C39.1859 31.4166 39.249 31.4477 39.3121 31.4477C39.4068 31.4477 39.5014 31.4166 39.5645 31.3235C39.6592 31.1993 39.6276 31.0131 39.5014 30.8889L36.6934 28.9331ZM42.1201 25.7976C42.0255 25.7355 41.9624 25.6114 41.9624 25.5182L42.0255 23.5935C42.0255 23.5625 42.0255 23.5314 42.0255 23.5004C42.0255 23.252 41.8993 22.9726 41.7415 22.7864L40.2271 21.11L39.6907 21.4204L38.965 21.824L38.2078 22.2586L39.5961 23.8108C39.8169 24.0281 39.9431 24.3075 40.0378 24.618L40.5426 24.3075L41.3629 23.8419L41.3313 25.4872C41.3313 25.7976 41.4891 26.1081 41.7415 26.2943L44.4864 28.2501C44.5495 28.2812 44.6126 28.3122 44.6757 28.3122C44.7704 28.3122 44.865 28.2812 44.9281 28.188C45.0228 28.0639 44.9912 27.8776 44.865 27.7534L42.1201 25.7976ZM33.9801 30.5164C33.8854 30.4543 33.8223 30.3301 33.8223 30.237L33.8854 28.3122C33.8854 28.2501 33.8854 28.2191 33.8854 28.157C33.8539 27.9086 33.7592 27.6603 33.6014 27.474L32.087 25.7976L31.5507 26.1081L30.825 26.5117L26.8181 28.7779C26.3133 29.0573 25.7769 29.2125 25.209 29.2125C24.6411 29.2125 24.1047 29.0573 23.5999 28.7779L19.6245 26.5117L18.9304 26.1081L18.3941 25.7976L16.8796 27.474C16.7219 27.6603 16.5957 27.9086 16.5957 28.157C16.5957 28.2191 16.5957 28.2501 16.5957 28.3122L16.6588 30.237C16.6588 30.3611 16.5957 30.4543 16.501 30.5164L13.7561 32.4721C13.6299 32.5653 13.5984 32.7515 13.693 32.9068C13.7561 32.9999 13.8508 33.0309 13.9454 33.0309C14.0085 33.0309 14.0716 32.9999 14.1347 32.9688L16.8796 31.0131C17.132 30.8268 17.2898 30.5474 17.2898 30.2059L17.2582 28.4985L18.0786 28.9641L24.1047 32.4101C24.8304 32.8447 25.7453 32.8447 26.5026 32.4101L32.5287 28.9641L33.349 28.4985L33.3175 30.1749C33.3175 30.4853 33.4437 30.7958 33.7276 30.982L36.4725 32.9378C36.5357 32.9688 36.5988 32.9999 36.6619 32.9999C36.7565 32.9999 36.8512 32.9689 36.9143 32.8757C37.0089 32.7515 36.9774 32.5653 36.8512 32.4411L33.9801 30.5164Z" fill="black"></path><path d="M0.694169 15.6772V18.5954C0.694169 18.8748 0.851922 19.1542 1.10433 19.3094L2.2086 19.9613C2.2717 19.6509 2.42945 19.3715 2.65031 19.1231L4.00698 17.602L0.694169 15.6772ZM46.3794 17.602L47.7677 19.1231C47.9885 19.3715 48.1463 19.6509 48.2094 19.9613L49.3452 19.3094C49.6292 19.1542 49.7554 18.8748 49.7554 18.5954V15.6772L46.3794 17.602ZM1.10433 14.9943L3.62838 16.4223L24.0416 28.0949C24.7673 28.5295 25.6822 28.5295 26.4395 28.0949L46.8527 16.4223L49.3767 14.9943C49.6607 14.839 49.7869 14.5596 49.7869 14.2802C49.7869 14.0008 49.6607 13.7214 49.3767 13.5662L49.2505 13.5041L44.865 10.9895L46.0639 10.1203C46.127 10.0582 46.1901 10.0893 46.2217 10.1203C46.2532 10.1203 46.3163 10.1824 46.2848 10.2445L46.2532 11.6104C46.2532 11.7657 46.3794 11.9209 46.5687 11.9209C46.7265 11.9209 46.8843 11.7967 46.8843 11.6104L46.9158 10.2445C46.9158 9.96509 46.758 9.68569 46.5056 9.56151C46.2532 9.43734 45.9377 9.46838 45.7169 9.6236L44.3602 10.617C44.3287 10.617 44.3287 10.6481 44.3287 10.6791L41.8993 9.28212L43.1297 8.38183C43.1928 8.31975 43.2559 8.35079 43.2875 8.38183C43.319 8.38183 43.3821 8.44392 43.3506 8.50601L43.319 9.87196C43.319 10.0272 43.4452 10.1824 43.6345 10.1824C43.7923 10.1824 43.95 10.0582 43.95 9.87196L43.9816 8.50601C43.9816 8.22661 43.8238 7.94722 43.5714 7.82304C43.319 7.69886 43.0035 7.72991 42.7827 7.88513L41.426 8.87854C41.3944 8.90959 41.3944 8.90958 41.3629 8.94063L38.9335 7.54364L40.1955 6.64336C40.2586 6.58127 40.3217 6.61231 40.3533 6.64336C40.3848 6.64336 40.4479 6.70545 40.4164 6.76753L40.3848 8.13348C40.3848 8.2887 40.511 8.44392 40.7003 8.44392C40.8581 8.44392 41.0158 8.31975 41.0158 8.13348L41.0474 6.76753C41.0474 6.48814 40.8896 6.20874 40.6372 6.08456C40.3848 5.96039 40.0693 5.99143 39.8485 6.14665L38.4918 7.14007C38.4602 7.17111 38.4287 7.20215 38.4287 7.2332L35.9677 5.80516L37.2298 4.87384C37.2929 4.81175 37.356 4.84279 37.3875 4.87384C37.4191 4.87384 37.4822 4.93593 37.4506 4.99801L37.4191 6.36396C37.4191 6.51918 37.5453 6.6744 37.7346 6.6744C37.8923 6.6744 38.0501 6.55023 38.0501 6.36396L38.0816 4.99801C38.0816 4.71862 37.9239 4.43922 37.6715 4.31504C37.4191 4.19087 37.1036 4.22191 36.8827 4.37713L35.526 5.37055C35.4945 5.40159 35.4629 5.43263 35.4314 5.46368L32.9704 4.03564L34.264 3.10432C34.3271 3.04223 34.3902 3.07327 34.4218 3.10432C34.4533 3.10432 34.5164 3.16641 34.4849 3.2285L34.4533 4.59444C34.4533 4.74966 34.5795 4.90488 34.7688 4.90488C34.9266 4.90488 35.0843 4.78071 35.0843 4.59444L35.1159 3.2285C35.1159 2.9491 34.9581 2.6697 34.7057 2.54552C34.4533 2.42135 34.1378 2.45239 33.917 2.60761L32.5603 3.60103C32.5287 3.63207 32.4972 3.66311 32.4656 3.7252L30.0047 2.29717L31.2983 1.3348C31.3614 1.27271 31.4245 1.30375 31.456 1.3348C31.4876 1.3348 31.5507 1.39689 31.5191 1.45898L31.4876 2.82492C31.4876 2.98014 31.6138 3.13536 31.8031 3.13536C31.9608 3.13536 32.1186 3.01119 32.1186 2.82492L32.1501 1.45898C32.1501 1.17958 31.9924 0.900179 31.74 0.776002C31.4876 0.651826 31.1721 0.68287 30.9512 0.838091L29.5945 1.83151C29.5314 1.86255 29.4999 1.92464 29.4999 1.98673L26.4079 0.310339C25.6507 -0.12428 24.7357 -0.12428 24.0101 0.310339L21.139 1.98673C21.1074 1.92464 21.0759 1.89359 21.0443 1.83151L19.6876 0.838091C19.4668 0.68287 19.1513 0.651826 18.8989 0.776002C18.6149 0.931223 18.4572 1.17958 18.4572 1.45898L18.4887 2.82492C18.4887 2.98014 18.6149 3.13536 18.8042 3.13536C18.962 3.13536 19.1197 2.98014 19.1197 2.82492L19.0882 1.45898C19.0882 1.36584 19.1513 1.3348 19.1513 1.3348C19.1828 1.3348 19.2459 1.30375 19.309 1.3348L20.6026 2.29717L18.1417 3.7252C18.1101 3.69416 18.0786 3.63207 18.047 3.60103L16.6903 2.60761C16.4695 2.45239 16.154 2.42135 15.9016 2.54552C15.6492 2.6697 15.4914 2.9491 15.4914 3.2285L15.523 4.59444C15.523 4.74966 15.6492 4.90488 15.8385 4.90488C15.9962 4.90488 16.154 4.74966 16.154 4.59444L16.0909 3.19745C16.0909 3.10432 16.154 3.07327 16.154 3.07327C16.1855 3.07327 16.2486 3.04223 16.3117 3.07327L17.6053 4.0046L15.1443 5.43263C15.1128 5.40159 15.0812 5.37055 15.0497 5.3395L13.693 4.34609C13.4722 4.19087 13.1567 4.15982 12.9043 4.284C12.6518 4.40818 12.4941 4.68757 12.4941 4.96697L12.5256 6.33292C12.5256 6.48814 12.6518 6.64336 12.8412 6.64336C12.9989 6.64336 13.1567 6.48814 13.1567 6.33292L13.1251 4.96697C13.1251 4.87384 13.1882 4.84279 13.1882 4.84279C13.2198 4.84279 13.2829 4.81175 13.346 4.84279L14.608 5.77412L12.147 7.20215C12.1155 7.17111 12.1155 7.14007 12.0839 7.10902L10.7273 6.08456C10.5064 5.92934 10.1909 5.8983 9.9385 6.02247C9.68609 6.14665 9.52834 6.42605 9.52834 6.70545L9.55989 8.07139C9.55989 8.22661 9.68609 8.38183 9.87539 8.38183C10.0331 8.38183 10.1909 8.22661 10.1909 8.07139L10.1593 6.70545C10.1593 6.61231 10.2225 6.58127 10.2225 6.58127C10.254 6.58127 10.3171 6.55023 10.3802 6.58127L11.6422 7.48155L9.14973 8.90959C9.11818 8.87854 9.11818 8.8475 9.08663 8.8475L7.72995 7.85408C7.5091 7.69886 7.19359 7.66782 6.94119 7.79199C6.68878 7.91617 6.53103 8.19557 6.53103 8.47497L6.56258 9.84091C6.56258 9.99613 6.68878 10.1514 6.87809 10.1514C7.03584 10.1514 7.19359 9.99613 7.19359 9.84091L7.16204 8.47497C7.16204 8.38183 7.22514 8.35079 7.22514 8.35079C7.25669 8.35079 7.3198 8.31975 7.3829 8.35079L8.61337 9.25107L6.18397 10.6481C6.18397 10.617 6.15242 10.617 6.15242 10.586L4.79575 9.59256C4.57489 9.43734 4.25939 9.40629 4.00698 9.53047C3.75458 9.65465 3.59682 9.93404 3.59682 10.2134L3.62838 11.5794C3.62838 11.7346 3.75458 11.8898 3.94388 11.8898C4.10163 11.8898 4.25939 11.7346 4.25939 11.5794L4.22784 10.2134C4.22784 10.1203 4.29094 10.0893 4.29094 10.0893C4.32249 10.0893 4.38559 10.0582 4.44869 10.0893L5.64761 10.9585L1.23053 13.4731L1.10433 13.5352C0.820371 13.6904 0.694169 13.9698 0.694169 14.2492C0.694169 14.5596 0.820371 14.839 1.10433 14.9943ZM9.05508 25.4872L9.02353 23.8419L9.84384 24.3075L10.3487 24.618C10.4433 24.3075 10.5695 24.0592 10.7904 23.8108L12.1786 22.2586L11.4214 21.824L10.6957 21.4204L10.1593 21.11L8.64492 22.7864C8.45562 22.9726 8.36096 23.221 8.36096 23.5004C8.36096 23.5314 8.36096 23.5625 8.36096 23.5935L8.42407 25.5182C8.42407 25.6424 8.36097 25.7355 8.26631 25.7976L5.52141 27.7534C5.39521 27.8466 5.36366 28.0328 5.45831 28.188C5.52141 28.2812 5.61606 28.3122 5.71071 28.3122C5.77382 28.3122 5.83692 28.2812 5.90002 28.2501L8.64492 26.2943C8.92888 26.1081 9.08663 25.8287 9.05508 25.4872ZM6.34173 23.935L6.31018 22.2896L7.13049 22.7553L7.6353 23.0347C7.72995 22.7243 7.85616 22.4449 8.07701 22.2276L9.46524 20.6753L8.70802 20.2407L8.01391 19.8682L7.47755 19.5578L5.99467 21.2341C5.80537 21.4204 5.71071 21.6998 5.71071 21.9482C5.71071 21.9792 5.71071 22.0102 5.71071 22.0413L5.77382 23.966C5.77382 24.0902 5.71071 24.1833 5.61606 24.2454L2.83961 26.1702C2.71341 26.2633 2.68186 26.4496 2.77651 26.6048C2.83961 26.6979 2.93426 26.729 3.02891 26.729C3.09201 26.729 3.15512 26.6979 3.21822 26.6669L5.96312 24.7111C6.21552 24.5559 6.37328 24.2454 6.34173 23.935ZM3.62838 22.3828L3.59682 20.7685L4.41714 21.2341L4.92195 21.5135C4.98505 21.2031 5.1428 20.9237 5.36366 20.6753L6.75188 19.1542L5.99467 18.7196L5.30056 18.316L4.7642 18.0055L3.28132 19.6509C3.09201 19.8682 2.99736 20.1165 2.99736 20.3959C2.99736 20.427 2.99736 20.427 2.99736 20.458L3.06046 22.3828C3.06046 22.507 2.99736 22.6001 2.90271 22.6622L0.157809 24.618C0.0316064 24.7111 5.58048e-05 24.8974 0.0947076 25.0526C0.157809 25.1457 0.252461 25.1768 0.347112 25.1768C0.410214 25.1768 0.473315 25.1457 0.536416 25.1147L3.28132 23.1589C3.50217 22.9726 3.65993 22.6932 3.62838 22.3828ZM44.8335 24.2454C44.7388 24.1833 44.6757 24.0592 44.6757 23.966L44.7388 22.0413C44.7388 22.0102 44.7388 21.9792 44.7388 21.9482C44.7388 21.6688 44.6126 21.4204 44.4549 21.2341L42.972 19.5888L42.4356 19.8992L41.7099 20.3028L40.9527 20.7374L42.341 22.2896C42.5618 22.507 42.7196 22.8174 42.7827 23.0968L43.2875 22.8174L44.1078 22.3517L44.0762 23.966C44.0762 24.2765 44.234 24.5869 44.4864 24.7732L47.2313 26.729C47.2944 26.76 47.3575 26.7911 47.4206 26.7911C47.5153 26.7911 47.6099 26.76 47.673 26.6669C47.7677 26.5427 47.7361 26.3564 47.6099 26.2323L44.8335 24.2454ZM50.2917 24.618L47.5468 22.6622C47.4522 22.6001 47.3891 22.4759 47.3891 22.3828L47.4522 20.458C47.4522 20.427 47.4522 20.427 47.4522 20.3959C47.4522 20.1165 47.326 19.8682 47.1682 19.6509L45.6853 18.0055L45.149 18.316L44.4233 18.7196L43.6661 19.1542L45.0543 20.6753C45.2752 20.9237 45.4329 21.2031 45.496 21.5135L46.0008 21.2341L46.8211 20.7685L46.7896 22.3828C46.7896 22.6932 46.9158 23.0037 47.1998 23.1899L49.9447 25.1457C50.0078 25.1768 50.0709 25.2078 50.134 25.2078C50.2286 25.2078 50.3233 25.1768 50.3864 25.0836C50.4495 24.8974 50.4179 24.7111 50.2917 24.618ZM14.4818 28.6227L14.4502 26.9463L15.2705 27.4119L15.8069 27.7224C15.9016 27.443 16.0278 27.1636 16.2486 26.9463L17.6684 25.363L16.9112 24.9284L16.1855 24.5248L15.6492 24.2144L14.1347 25.8908C13.977 26.077 13.8508 26.3254 13.8508 26.5737C13.8508 26.6048 13.8508 26.6669 13.8508 26.6979L13.9139 28.6227C13.9139 28.7468 13.8508 28.84 13.7561 28.9021L11.0112 30.8578C10.885 30.951 10.8535 31.1372 10.9481 31.2925C11.0112 31.3856 11.1059 31.4166 11.2005 31.4166C11.2636 31.4166 11.3267 31.3856 11.3898 31.3546L14.1347 29.3988C14.3556 29.2435 14.5133 28.9331 14.4818 28.6227ZM11.7684 27.0704L11.7369 25.3941L12.5572 25.8597L13.0936 26.1702C13.1882 25.8908 13.3144 25.6114 13.5353 25.3941L14.955 23.8419L14.1978 23.4072L13.4722 23.0037L12.9358 22.6932L11.4214 24.3696C11.2321 24.5559 11.1374 24.8042 11.1374 25.0526C11.1374 25.0836 11.1374 25.1147 11.1374 25.1768L11.2005 27.1015C11.2005 27.2257 11.1374 27.3188 11.0428 27.3809L8.29786 29.3367C8.17166 29.4298 8.14011 29.6161 8.23476 29.7713C8.29786 29.8644 8.39252 29.8955 8.48717 29.8955C8.55027 29.8955 8.61337 29.8644 8.67647 29.8334L11.4214 27.8776C11.6422 27.6913 11.8 27.3809 11.7684 27.0704ZM39.4068 27.3809C39.3121 27.3188 39.249 27.1946 39.249 27.1015L39.3121 25.1768C39.3121 25.1457 39.3121 25.1147 39.3121 25.0526C39.2806 24.8042 39.1859 24.5559 39.0281 24.3696L37.5137 22.6932L36.9774 23.0037L36.2517 23.4072L35.4945 23.8419L36.9143 25.3941C37.1351 25.6114 37.2613 25.8908 37.356 26.1702L37.8923 25.8597L38.7126 25.3941L38.6811 27.0394C38.6811 27.3498 38.8073 27.6603 39.0913 27.8466L41.8362 29.8023C41.8993 29.8334 41.9624 29.8644 42.0255 29.8644C42.1201 29.8644 42.2148 29.8334 42.2779 29.7403C42.3725 29.6161 42.341 29.4298 42.2148 29.3056L39.4068 27.3809ZM36.6934 28.9331C36.5988 28.871 36.5357 28.7468 36.5357 28.6537L36.5988 26.729C36.5988 26.6979 36.5988 26.6358 36.5988 26.6048C36.5672 26.3564 36.4725 26.1081 36.3148 25.9218L34.8004 24.2454L34.264 24.5559L33.5383 24.9594L32.7811 25.3941L34.2009 26.9463C34.3902 27.1636 34.548 27.443 34.6426 27.7224L35.179 27.4119L35.9993 26.9463L35.9677 28.6227C35.9677 28.9331 36.0939 29.2435 36.3779 29.4298L39.1228 31.3856C39.1859 31.4166 39.249 31.4477 39.3121 31.4477C39.4068 31.4477 39.5014 31.4166 39.5645 31.3235C39.6592 31.1993 39.6276 31.0131 39.5014 30.8889L36.6934 28.9331ZM42.1201 25.7976C42.0255 25.7355 41.9624 25.6114 41.9624 25.5182L42.0255 23.5935C42.0255 23.5625 42.0255 23.5314 42.0255 23.5004C42.0255 23.252 41.8993 22.9726 41.7415 22.7864L40.2271 21.11L39.6907 21.4204L38.965 21.824L38.2078 22.2586L39.5961 23.8108C39.8169 24.0281 39.9431 24.3075 40.0378 24.618L40.5426 24.3075L41.3629 23.8419L41.3313 25.4872C41.3313 25.7976 41.4891 26.1081 41.7415 26.2943L44.4864 28.2501C44.5495 28.2812 44.6126 28.3122 44.6757 28.3122C44.7704 28.3122 44.865 28.2812 44.9281 28.188C45.0228 28.0639 44.9912 27.8776 44.865 27.7534L42.1201 25.7976ZM33.9801 30.5164C33.8854 30.4543 33.8223 30.3301 33.8223 30.237L33.8854 28.3122C33.8854 28.2501 33.8854 28.2191 33.8854 28.157C33.8539 27.9086 33.7592 27.6603 33.6014 27.474L32.087 25.7976L31.5507 26.1081L30.825 26.5117L26.8181 28.7779C26.3133 29.0573 25.7769 29.2125 25.209 29.2125C24.6411 29.2125 24.1047 29.0573 23.5999 28.7779L19.6245 26.5117L18.9304 26.1081L18.3941 25.7976L16.8796 27.474C16.7219 27.6603 16.5957 27.9086 16.5957 28.157C16.5957 28.2191 16.5957 28.2501 16.5957 28.3122L16.6588 30.237C16.6588 30.3611 16.5957 30.4543 16.501 30.5164L13.7561 32.4721C13.6299 32.5653 13.5984 32.7515 13.693 32.9068C13.7561 32.9999 13.8508 33.0309 13.9454 33.0309C14.0085 33.0309 14.0716 32.9999 14.1347 32.9688L16.8796 31.0131C17.132 30.8268 17.2898 30.5474 17.2898 30.2059L17.2582 28.4985L18.0786 28.9641L24.1047 32.4101C24.8304 32.8447 25.7453 32.8447 26.5026 32.4101L32.5287 28.9641L33.349 28.4985L33.3175 30.1749C33.3175 30.4853 33.4437 30.7958 33.7276 30.982L36.4725 32.9378C36.5357 32.9688 36.5988 32.9999 36.6619 32.9999C36.7565 32.9999 36.8512 32.9689 36.9143 32.8757C37.0089 32.7515 36.9774 32.5653 36.8512 32.4411L33.9801 30.5164Z" fill="url(#paint0_linear_65_133)"></path><path d="M24.4202 4.5323L11.3582 12.076C10.254 12.728 10.254 14.3112 11.3582 14.9321L24.4202 22.4138C24.8934 22.6932 25.4929 22.6932 25.9662 22.4138L39.0281 14.9321C40.1324 14.2802 40.1324 12.728 39.0281 12.076L25.9977 4.5323C25.4929 4.2529 24.925 4.2529 24.4202 4.5323Z" fill="white"></path><path d="M16.4379 14.901C16.2171 14.901 16.0278 14.9321 15.87 14.9942C15.1128 14.4975 14.7026 14.0007 14.7026 13.504C14.7026 12.8521 15.3337 12.2933 15.9016 11.8897C16.0593 11.9208 16.2486 11.9518 16.4379 11.9518C17.1636 11.9518 17.763 11.5793 17.763 11.1136C17.763 10.648 17.1636 10.2754 16.4379 10.2754C15.7123 10.2754 15.1128 10.648 15.1128 11.1136C15.1128 11.1757 15.1128 11.2068 15.1443 11.2689C14.3871 11.7656 13.5037 12.5417 13.4722 13.473C13.4722 14.2491 14.0085 14.9631 15.1128 15.615C15.1128 15.6461 15.1128 15.6771 15.1128 15.7392C15.1128 16.2049 15.7123 16.5774 16.4379 16.5774C17.1636 16.5774 17.763 16.2049 17.763 15.7392C17.763 15.2736 17.1636 14.901 16.4379 14.901ZM16.1855 10.8342C16.2486 10.8032 16.3433 10.8032 16.4379 10.8032C16.7219 10.8032 16.9427 10.9584 16.9427 11.1447C16.9427 11.2378 16.8796 11.3309 16.7534 11.393C16.6588 11.4551 16.5326 11.4862 16.4064 11.4862C16.1224 11.4862 15.9016 11.3309 15.9016 11.1447C15.9016 10.9895 16.0278 10.8963 16.1855 10.8342ZM16.4379 16.0807C16.3433 16.0807 16.2486 16.0497 16.1855 16.0497C16.0278 15.9876 15.9331 15.8944 15.9331 15.7703C15.9331 15.584 16.154 15.4288 16.4379 15.4288C16.5641 15.4288 16.6903 15.4598 16.785 15.5219C16.8796 15.584 16.9427 15.6771 16.9427 15.7703C16.9427 15.9255 16.7219 16.0807 16.4379 16.0807ZM19.6876 16.6705V9.65456L23.2529 7.38833C23.8208 7.04684 24.5464 6.86058 25.2721 6.86058C25.8085 6.86058 26.3133 6.95371 26.7865 7.13998V10.9895C26.3764 11.1447 26.0924 11.393 26.0924 11.7345C26.0924 12.2002 26.6919 12.5727 27.4175 12.5727C28.1432 12.5727 28.7427 12.2002 28.7427 11.7345C28.7427 11.4241 28.4587 11.1447 28.0485 10.9895V7.85399V6.76744C27.6699 6.55014 27.2598 6.39491 26.8181 6.27074C25.3036 5.89821 23.5684 6.08447 22.3694 6.82953L19.6876 8.53697L18.4572 9.31307V10.4307V16.6705C18.047 16.8258 17.763 17.0741 17.763 17.4156C17.763 17.8813 18.3625 18.2538 19.0882 18.2538C19.8138 18.2538 20.4133 17.8813 20.4133 17.4156C20.3817 17.1052 20.0978 16.8258 19.6876 16.6705ZM27.386 11.393C27.6699 11.393 27.8908 11.5483 27.8908 11.7345C27.8908 11.9208 27.6699 12.076 27.386 12.076C27.102 12.076 26.8812 11.9208 26.8812 11.7345C26.8812 11.5483 27.102 11.393 27.386 11.393ZM19.0566 17.7261C18.7727 17.7261 18.5518 17.5708 18.5518 17.3846V17.3535C18.5834 17.1983 18.7727 17.0741 19.0251 17.0741H19.0566C19.309 17.0741 19.5299 17.1983 19.5614 17.3535V17.3846C19.593 17.6019 19.3406 17.7261 19.0566 17.7261ZM36.8512 13.473C36.8512 12.5106 35.9362 11.7345 35.179 11.2689C35.179 11.2378 35.2105 11.1757 35.2105 11.1136C35.2105 10.648 34.6111 10.2754 33.8854 10.2754C33.1597 10.2754 32.5603 10.648 32.5603 11.1136C32.5603 11.5793 33.1597 11.9518 33.8854 11.9518C34.0747 11.9518 34.264 11.9208 34.4218 11.8897C34.9897 12.2623 35.6207 12.8521 35.6207 13.504C35.6207 14.0007 35.2421 14.5285 34.4533 14.9942C34.264 14.9321 34.0747 14.901 33.8854 14.901C33.1597 14.901 32.5603 15.2736 32.5603 15.7392C32.5603 16.2049 33.1597 16.5774 33.8854 16.5774C34.6111 16.5774 35.2105 16.2049 35.2105 15.7392C35.2105 15.7082 35.2105 15.6461 35.2105 15.615C36.3148 14.9631 36.8512 14.2491 36.8512 13.473ZM33.8854 11.4551C33.7592 11.4551 33.633 11.4241 33.5383 11.362C33.4437 11.2999 33.349 11.2068 33.349 11.1136C33.349 10.9274 33.5699 10.7721 33.8539 10.7721C33.9485 10.7721 34.0432 10.7721 34.1063 10.8032C34.264 10.8653 34.3902 10.9584 34.3902 11.0826C34.4218 11.2999 34.1694 11.4551 33.8854 11.4551ZM34.1378 16.0186C34.0747 16.0497 33.9801 16.0497 33.8854 16.0497C33.6014 16.0497 33.3806 15.8944 33.3806 15.7082C33.3806 15.615 33.4437 15.5219 33.5383 15.4598C33.633 15.3977 33.7592 15.3667 33.8854 15.3667C34.1694 15.3667 34.3902 15.5219 34.3902 15.7082C34.4218 15.8634 34.2956 15.9876 34.1378 16.0186ZM31.2667 8.6301C30.541 8.6301 29.9416 9.00263 29.9416 9.46829C29.9416 9.77873 30.2255 10.0581 30.6357 10.2134V17.2293L27.0705 19.4956C26.5026 19.8371 25.7769 20.0233 25.0512 20.0233C24.5149 20.0233 24.0101 19.9302 23.5368 19.7439V15.8944C23.947 15.7392 24.2309 15.4909 24.2309 15.1494C24.2309 14.6837 23.6315 14.3112 22.9058 14.3112C22.1801 14.3112 21.5807 14.6837 21.5807 15.1494C21.5807 15.4598 21.8646 15.7392 22.2748 15.8944V19.0299V20.1165C22.6534 20.3338 23.0635 20.489 23.5053 20.6132C24.9881 20.9857 26.7234 20.7994 27.8908 20.0544L30.5726 18.3469L31.8031 17.5708V16.4532V10.1823C32.2132 10.0271 32.4972 9.77873 32.4972 9.43725C32.5918 9.00263 31.9924 8.6301 31.2667 8.6301ZM22.9373 15.4909C22.6534 15.4909 22.4325 15.3356 22.4325 15.1494C22.4325 14.9631 22.6534 14.8079 22.9373 14.8079C23.2213 14.8079 23.4422 14.9631 23.4422 15.1494C23.4737 15.3356 23.2213 15.4909 22.9373 15.4909ZM31.7715 9.49934C31.74 9.65456 31.5507 9.77873 31.2983 9.77873H31.2667C31.0143 9.77873 30.7934 9.65456 30.7619 9.49934V9.46829C30.7619 9.28203 30.9827 9.12681 31.2667 9.12681C31.5507 9.12681 31.7715 9.28203 31.7715 9.46829V9.49934ZM25.2405 10.679C25.2405 10.1202 24.5149 9.74769 23.1267 9.74769H20.3817V13.2867H23.2844C24.7673 13.2867 25.5245 12.9452 25.5245 12.3244C25.5245 11.8897 25.1143 11.5793 24.5149 11.4551C24.925 11.2999 25.2405 11.0515 25.2405 10.679ZM21.6438 10.3686H22.9373C23.5684 10.3686 23.9154 10.4928 23.9154 10.7721C23.9154 11.0515 23.5684 11.2068 22.9373 11.2068H21.6438V10.3686ZM23.1582 12.6969H21.6438V11.8277H23.1582C23.8208 11.8277 24.1994 11.9829 24.1994 12.2623C24.1994 12.5727 23.8523 12.6969 23.1582 12.6969ZM27.7961 14.7148C28.364 14.7148 28.8373 14.87 29.2159 15.1183L30.0362 14.6216C29.4999 14.2181 28.7111 14.0007 27.733 14.0007C25.9978 14.0007 24.7042 14.7769 24.7042 15.8324C24.7042 16.8879 25.9978 17.664 27.733 17.664C28.7111 17.664 29.5314 17.4467 30.0362 17.0431L29.2159 16.5464C28.8373 16.8258 28.364 16.981 27.7961 16.981C26.755 16.981 25.9978 16.5153 25.9978 15.8324C25.9978 15.1804 26.755 14.7148 27.7961 14.7148Z" fill="#0DC58F"></path><path d="M77.7092 4.99805C76.1632 4.99805 75.122 5.99146 75.122 7.29532C75.122 8.59918 76.1632 9.59259 77.7092 9.59259C79.2552 9.59259 80.2963 8.59918 80.2963 7.23323C80.2963 5.96042 79.2552 4.99805 77.7092 4.99805ZM69.1905 16.1429C70.7049 15.3668 71.683 13.9388 71.683 12.1072C71.683 9.2511 69.2852 7.32636 64.5841 7.32636H55.4344V25.7356H65.1205C70.0424 25.7356 72.598 23.904 72.598 20.7064C72.598 18.3781 71.2729 16.7948 69.1905 16.1429ZM59.7569 10.4929H64.0478C66.1617 10.4929 67.2975 11.2069 67.2975 12.6349C67.2975 14.094 66.1617 14.808 64.0478 14.808H59.7569V10.4929ZM64.805 22.507H59.7569V17.9435H64.805C67.0451 17.9435 68.244 18.6885 68.244 20.2408C68.244 21.824 67.0451 22.507 64.805 22.507ZM75.5953 25.7045H79.76V11.5484H75.5953V25.7045ZM156.838 11.3311C154.913 11.3311 153.368 11.9209 152.326 13.1627V11.5173H148.351V30.7647H152.516V24.2144C153.588 25.3631 155.071 25.9218 156.838 25.9218C160.877 25.9218 164 23.0658 164 18.6265C164 14.1871 160.877 11.3311 156.838 11.3311ZM156.112 22.538C154.03 22.538 152.453 21.0789 152.453 18.6265C152.453 16.174 154.03 14.7149 156.112 14.7149C158.195 14.7149 159.772 16.174 159.772 18.6265C159.772 21.0789 158.195 22.538 156.112 22.538ZM140.274 25.7045H144.439V11.5484H140.274V25.7045ZM94.147 13.0385C93.1059 11.8899 91.5914 11.3311 89.8561 11.3311C85.7861 11.3311 82.6626 14.1871 82.6626 18.6265C82.6626 23.0658 85.7861 25.9218 89.8561 25.9218C91.7807 25.9218 93.2952 25.332 94.3363 24.0902V25.7356H98.3117V6.17773H94.147V13.0385ZM90.5503 22.538C88.4679 22.538 86.8588 21.0789 86.8588 18.6265C86.8588 16.174 88.4679 14.7149 90.5503 14.7149C92.6011 14.7149 94.2101 16.174 94.2101 18.6265C94.2101 21.0789 92.6326 22.538 90.5503 22.538ZM142.356 4.99805C140.81 4.99805 139.769 5.99146 139.769 7.29532C139.769 8.59918 140.81 9.59259 142.356 9.59259C143.902 9.59259 144.943 8.59918 144.943 7.23323C144.943 5.96042 143.902 4.99805 142.356 4.99805ZM111.658 10.617C113.519 10.617 115.097 11.3621 116.359 12.7591L119.135 10.2445C117.368 8.13351 114.655 6.98488 111.437 6.98488C105.6 6.98488 101.277 10.9585 101.277 16.5154C101.277 22.0724 105.6 26.046 111.405 26.046C114.655 26.046 117.368 24.8974 119.135 22.7553L116.359 20.2408C115.097 21.6998 113.519 22.4138 111.658 22.4138C108.155 22.4138 105.663 19.9924 105.663 16.5154C105.695 13.0385 108.155 10.617 111.658 10.617ZM130.525 11.3311C128.695 11.3311 127.086 11.9209 125.95 13.0075V6.17773H121.785V25.7045H125.95V18.7196C125.95 16.1119 127.401 14.9012 129.389 14.9012C131.251 14.9012 132.292 15.9567 132.292 18.2539V25.7356H136.456V17.602C136.488 13.2869 133.932 11.3311 130.525 11.3311Z" fill="black"></path></g><defs><linearGradient id="paint0_linear_65_133" x1="25.2288" y1="-0.015625" x2="25.2288" y2="33.0309" gradientUnits="userSpaceOnUse"><stop stop-color="#10D180"></stop><stop offset="1" stop-color="#0096CC"></stop></linearGradient><clipPath id="clip0_65_133"><rect width="164" height="33" fill="white"></rect></clipPath></defs></svg>